<svg xmlns="http://www.w3.org/2000/svg" width="24" height="24" fill="none"><path fill="#fff" d="M11 2a1 1 0 1 0 0 2V2Zm2.344 2a1 1 0 0 0 0-2v2ZM13 18.86a1 1 0 1 0-2 0h2Zm-2 .01a1 1 0 1 0 2 0h-2ZM7.312 3.625h9.375v-2H7.313v2Zm9.375 0c.095 0 .172.077.172.172h2c0-1.2-.972-2.172-2.172-2.172v2Zm.172.172v16.406h2V3.797h-2Zm0 16.406a.172.172 0 0 1-.172.172v2c1.2 0 2.172-.972 2.172-2.172h-2Zm-.172.172H7.313v2h9.375v-2Zm-9.375 0a.172.172 0 0 1-.171-.172h-2c0 1.2.972 2.172 2.171 2.172v-2Zm-.171-.172V3.797h-2v16.406h2Zm0-16.406c0-.095.077-.172.171-.172v-2c-1.199 0-2.171.972-2.171 2.172h2ZM11 4h2.344V2H11v2Zm0 14.86v.01h2v-.01h-2ZM6.5 17.5h11v-2h-11v2Z"/></svg>