<svg xmlns="http://www.w3.org/2000/svg" width="56" height="56" fill="none"><rect width="56" height="56" fill="#F6F6F6" rx="11"/><path fill="#797979" d="m37.47 27.185-1.03-1.43a2.502 2.502 0 0 0-2.03-1.05h-4.38v-2.14a2.5 2.5 0 0 0-2.5-2.5h-6.97a2.507 2.507 0 0 0-2.5 2.5v9.94a1.5 1.5 0 0 0 1.5 1.5h1.22a2.242 2.242 0 0 0 4.44 0h5.56a2.242 2.242 0 0 0 4.44 0h1.22a1.5 1.5 0 0 0 1.5-1.5v-3.87a2.509 2.509 0 0 0-.47-1.45ZM23 34.935a1.25 1.25 0 1 1 0-2.5 1.25 1.25 0 0 1 0 2.5Zm6.03-1.93h-3.88a2.257 2.257 0 0 0-4.3 0h-1.29a.5.5 0 0 1-.5-.5v-9.94a1.5 1.5 0 0 1 1.5-1.5h6.97a1.5 1.5 0 0 1 1.5 1.5v10.44Zm3.97 1.93a1.25 1.25 0 1 1 0-2.5 1.25 1.25 0 0 1 0 2.5Zm3.94-2.43a.5.5 0 0 1-.5.5h-1.29a2.257 2.257 0 0 0-4.3 0h-.82v-7.3h4.38a1.516 1.516 0 0 1 1.22.63l1.03 1.43c.18.255.278.558.28.87v3.87Z"/><path fill="#797979" d="M34.03 28.205h-2a.5.5 0 0 1 0-1h2a.5.5 0 0 1 0 1Z"/></svg>