<svg xmlns="http://www.w3.org/2000/svg" width="56" height="56" fill="none"><rect width="56" height="56" fill="#F6F6F6" rx="11"/><path fill="#797979" fill-rule="evenodd" d="M23.435 17.25h9.13c.57 0 1.054 0 1.454.041.425.044.819.14 1.19.37.372.23.634.539.864.9.215.34.432.772.687 1.282l.016.033c.01.02.019.039.027.06l1.404 3.547c.166.423.352.95.406 1.488.055.552-.02 1.183-.453 1.73a2.753 2.753 0 0 1-1.41.945v9.604H38a.75.75 0 0 1 0 1.5H18a.75.75 0 0 1 0-1.5h1.25v-9.604a2.755 2.755 0 0 1-1.41-.944c-.432-.548-.508-1.18-.453-1.73.054-.54.24-1.066.406-1.489l1.404-3.548a.756.756 0 0 1 .027-.06l.016-.032c.255-.51.471-.943.687-1.282.23-.361.492-.67.863-.9.372-.23.766-.326 1.191-.37.4-.041.884-.041 1.454-.041ZM34 26.887a2.75 2.75 0 0 0 1.25.76v9.603h-4v-2.782c0-.44 0-.82-.028-1.13-.03-.33-.096-.656-.273-.963a2.251 2.251 0 0 0-.824-.824c-.307-.177-.633-.243-.962-.273-.312-.028-.691-.028-1.13-.028h-.065c-.44 0-.82 0-1.13.028-.33.03-.656.096-.963.273a2.251 2.251 0 0 0-.824.824c-.177.307-.243.633-.273.962-.028.312-.028.691-.028 1.13v2.783h-4v-9.604a2.75 2.75 0 0 0 1.25-.759 2.742 2.742 0 0 0 2 .863c.788 0 1.498-.331 2-.863a2.742 2.742 0 0 0 2 .863c.788 0 1.498-.331 2-.863a2.742 2.742 0 0 0 2 .863c.788 0 1.498-.331 2-.863ZM26.25 37.25h3.5V34.5c0-.481 0-.792-.022-1.027-.02-.225-.055-.307-.079-.348a.75.75 0 0 0-.274-.275c-.04-.023-.123-.058-.348-.078A12.776 12.776 0 0 0 28 32.75c-.481 0-.792 0-1.027.022-.225.02-.307.055-.348.078a.75.75 0 0 0-.274.275c-.024.04-.058.123-.079.348-.021.235-.022.546-.022 1.027v2.75ZM22.75 25a1.25 1.25 0 0 0 2.5 0 .75.75 0 0 1 1.5 0 1.25 1.25 0 0 0 2.5 0 .75.75 0 0 1 1.5 0 1.25 1.25 0 0 0 2.5 0 .75.75 0 0 1 1.5 0 1.25 1.25 0 0 0 2.232.773c.114-.144.17-.342.138-.652-.032-.322-.151-.688-.308-1.086l-1.392-3.518c-.268-.535-.447-.89-.613-1.15-.16-.252-.275-.361-.386-.43-.111-.07-.26-.123-.557-.154-.313-.032-.72-.033-1.336-.033h-9.056c-.617 0-1.023 0-1.336.033-.297.031-.446.085-.557.154-.112.069-.226.178-.386.43-.167.26-.346.615-.613 1.15l-1.392 3.518c-.157.398-.276.764-.308 1.086-.031.31.024.508.138.652A1.25 1.25 0 0 0 21.25 25a.75.75 0 0 1 1.5 0Z" clip-rule="evenodd"/></svg>