<svg xmlns="http://www.w3.org/2000/svg" width="24" height="24" fill="none"><path fill="#4E4E4E" d="M9.422.75c-.702 0-.937.158-.937.938v.702h-2.11c-1.385 0-1.64.256-1.64 1.64v17.58c0 1.385.256 1.64 1.64 1.64h11.25c1.385 0 1.64-.255 1.64-1.64V4.03c0-1.385-.255-1.64-1.64-1.64h-2.11v-.703c0-.778-.234-.937-.937-.937H9.422ZM6.375 5.672c0-1.875-.234-1.64 1.64-1.64h7.97c1.874 0 1.64-.234 1.64 1.64V19.97c0 1.875.233 1.64-1.64 1.64h-7.97c-1.875 0-1.64.235-1.64-1.64V5.672Zm1.172 3.282h8.906c.259 0 .469.21.469.468v2.579a.47.47 0 0 1-.47.469H7.548a.469.469 0 0 1-.47-.47V9.423a.47.47 0 0 1 .47-.469Zm0 4.218h8.906c.259 0 .469.21.469.469v2.579c0 .258-.21.468-.47.468H7.548a.469.469 0 0 1-.47-.468v-2.58a.47.47 0 0 1 .47-.469Zm0 4.219h8.906c.259 0 .469.21.469.469v2.578a.47.47 0 0 1-.47.469H7.548a.469.469 0 0 1-.47-.469V17.86a.47.47 0 0 1 .47-.469Z"/></svg>