<svg xmlns="http://www.w3.org/2000/svg" width="24" height="24" fill="none"><path fill="#fff" fill-rule="evenodd" d="M4 7a1 1 0 0 0-1 1v8a1 1 0 0 0 1 1h16a1 1 0 0 0 1-1V8a1 1 0 0 0-1-1H4ZM1 8a3 3 0 0 1 3-3h16a3 3 0 0 1 3 3v8a3 3 0 0 1-3 3H4a3 3 0 0 1-3-3V8Z" clip-rule="evenodd"/><path fill="#fff" fill-rule="evenodd" d="M8 9a1 1 0 0 1 1 1v1h1a1 1 0 1 1 0 2H9v1a1 1 0 1 1-2 0v-1H6a1 1 0 1 1 0-2h1v-1a1 1 0 0 1 1-1ZM15 9.5a1.5 1.5 0 0 1 1.5 1.5v.01a1.5 1.5 0 0 1-3 0V11A1.5 1.5 0 0 1 15 9.5ZM18 11.5a1.5 1.5 0 0 1 1.5 1.5v.01a1.5 1.5 0 0 1-3 0V13a1.5 1.5 0 0 1 1.5-1.5Z" clip-rule="evenodd"/></svg>