<svg xmlns="http://www.w3.org/2000/svg" width="24" height="24" fill="none"><path fill="#fff" d="M11 2a1 1 0 1 0 0 2V2Zm2.344 2a1 1 0 0 0 0-2v2ZM13 18.86a1 1 0 1 0-2 0h2Zm-2 .01a1 1 0 1 0 2 0h-2ZM7.312 2.625v1h9.375v-2H7.313v1Zm9.375 0v1c.095 0 .172.077.172.172h2c0-1.2-.972-2.172-2.172-2.172v1Zm1.172 1.172h-1v16.406h2V3.797h-1Zm0 16.406h-1a.172.172 0 0 1-.172.172v2c1.2 0 2.172-.972 2.172-2.172h-1Zm-1.172 1.172v-1H7.313v2h9.375v-1Zm-9.375 0v-1a.172.172 0 0 1-.171-.172h-2c0 1.2.972 2.172 2.171 2.172v-1Zm-1.171-1.172h1V3.797h-2v16.406h1Zm0-16.406h1c0-.095.077-.172.171-.172v-2c-1.199 0-2.171.972-2.171 2.172h1ZM11 3v1h2.344V2H11v1Zm1 15.86h-1v.01h2v-.01h-1ZM6.5 16.5v1h11v-2h-11v1Z"/></svg>