<svg xmlns="http://www.w3.org/2000/svg" width="24" height="24" fill="none"><path fill="#fff" fill-rule="evenodd" d="M9 7a2 2 0 0 0-2 2v6a2 2 0 0 0 2 2h6a2 2 0 0 0 2-2V9a2 2 0 0 0-2-2H9ZM5 9a4 4 0 0 1 4-4h6a4 4 0 0 1 4 4v6a4 4 0 0 1-4 4H9a4 4 0 0 1-4-4V9Z" clip-rule="evenodd"/><path fill="#fff" fill-rule="evenodd" d="M9 17a1 1 0 0 1 1 1v2h4v-2a1 1 0 1 1 2 0v3a1 1 0 0 1-1 1H9a1 1 0 0 1-1-1v-3a1 1 0 0 1 1-1ZM8 3a1 1 0 0 1 1-1h6a1 1 0 0 1 1 1v3a1 1 0 1 1-2 0V4h-4v2a1 1 0 0 1-2 0V3ZM10.357 8.5a.5.5 0 0 1 .5.5v5.5a.5.5 0 0 1-1 0V9a.5.5 0 0 1 .5-.5ZM12.357 11a.5.5 0 0 1 .5.5v3a.5.5 0 0 1-1 0v-3a.5.5 0 0 1 .5-.5ZM14.357 10a.5.5 0 0 1 .5.5v4a.5.5 0 0 1-1 0v-4a.5.5 0 0 1 .5-.5Z" clip-rule="evenodd"/></svg>