<svg width="117" height="70" viewBox="0 0 117 70" fill="none" xmlns="http://www.w3.org/2000/svg">
<path d="M102.5 18.5V50.5H15.5V18.5H102.5Z" stroke="currentColor" stroke-width="3"/>
<path d="M25.19 37.984L29.348 35.786V35.674L25.19 33.476V31.544L31.21 34.764V36.696L25.19 39.916V37.984ZM45.2131 40.168C43.9064 40.168 42.9357 39.7293 42.3011 38.852C41.6757 37.9653 41.3631 36.7193 41.3631 35.114C41.3631 33.5087 41.6757 32.2673 42.3011 31.39C42.9357 30.5033 43.9064 30.06 45.2131 30.06C45.7171 30.06 46.1604 30.13 46.5431 30.27C46.9351 30.4007 47.2711 30.5873 47.5511 30.83C47.8311 31.0727 48.0597 31.3667 48.2371 31.712C48.4237 32.0573 48.5684 32.4447 48.6711 32.874L46.7111 33.35C46.6551 33.1167 46.5897 32.902 46.5151 32.706C46.4404 32.51 46.3424 32.342 46.2211 32.202C46.1091 32.062 45.9644 31.9547 45.7871 31.88C45.6191 31.796 45.4137 31.754 45.1711 31.754C44.6017 31.754 44.1957 31.978 43.9531 32.426C43.7197 32.8647 43.6031 33.476 43.6031 34.26V35.968C43.6031 36.752 43.7197 37.368 43.9531 37.816C44.1957 38.2547 44.6017 38.474 45.1711 38.474C45.6564 38.474 46.0064 38.3247 46.2211 38.026C46.4451 37.7273 46.6084 37.3447 46.7111 36.878L48.6711 37.354C48.5684 37.7833 48.4237 38.1707 48.2371 38.516C48.0597 38.8613 47.8311 39.16 47.5511 39.412C47.2711 39.6547 46.9351 39.8413 46.5431 39.972C46.1604 40.1027 45.7171 40.168 45.2131 40.168ZM53.3836 40.168C52.8609 40.168 52.4829 40.056 52.2496 39.832C52.0256 39.5987 51.9136 39.3233 51.9136 39.006V38.516C51.9136 38.1987 52.0256 37.928 52.2496 37.704C52.4829 37.4707 52.8609 37.354 53.3836 37.354C53.9063 37.354 54.2796 37.4707 54.5036 37.704C54.7369 37.928 54.8536 38.1987 54.8536 38.516V39.006C54.8536 39.3233 54.7369 39.5987 54.5036 39.832C54.2796 40.056 53.9063 40.168 53.3836 40.168ZM53.3836 35.422C52.8609 35.422 52.4829 35.31 52.2496 35.086C52.0256 34.8527 51.9136 34.5773 51.9136 34.26V33.77C51.9136 33.4527 52.0256 33.182 52.2496 32.958C52.4829 32.7247 52.8609 32.608 53.3836 32.608C53.9063 32.608 54.2796 32.7247 54.5036 32.958C54.7369 33.182 54.8536 33.4527 54.8536 33.77V34.26C54.8536 34.5773 54.7369 34.8527 54.5036 35.086C54.2796 35.31 53.9063 35.422 53.3836 35.422ZM61.7781 40.168C60.4715 40.168 59.5055 39.7247 58.8801 38.838C58.2641 37.9513 57.9561 36.71 57.9561 35.114C57.9561 33.518 58.2641 32.2767 58.8801 31.39C59.5055 30.5033 60.4715 30.06 61.7781 30.06C63.0848 30.06 64.0461 30.5033 64.6621 31.39C65.2875 32.2767 65.6001 33.518 65.6001 35.114C65.6001 36.71 65.2875 37.9513 64.6621 38.838C64.0461 39.7247 63.0848 40.168 61.7781 40.168ZM61.7781 38.474C62.3755 38.474 62.7861 38.2547 63.0101 37.816C63.2435 37.368 63.3601 36.7473 63.3601 35.954V34.26C63.3601 33.476 63.2435 32.8647 63.0101 32.426C62.7861 31.978 62.3755 31.754 61.7781 31.754C61.1808 31.754 60.7655 31.978 60.5321 32.426C60.3081 32.8647 60.1961 33.476 60.1961 34.26V35.968C60.1961 36.752 60.3081 37.368 60.5321 37.816C60.7655 38.2547 61.1808 38.474 61.7781 38.474ZM66.8687 30.228H70.0187C71.3347 30.228 72.31 30.648 72.9447 31.488C73.5793 32.328 73.8967 33.5367 73.8967 35.114C73.8967 36.6913 73.5793 37.9 72.9447 38.74C72.31 39.58 71.3347 40 70.0187 40H66.8687V30.228ZM69.8787 38.348C70.504 38.348 70.9613 38.1473 71.2507 37.746C71.54 37.3447 71.6847 36.7613 71.6847 35.996V34.218C71.6847 33.462 71.54 32.8833 71.2507 32.482C70.9613 32.0807 70.504 31.88 69.8787 31.88H68.9407V38.348H69.8787ZM75.4872 40V30.228H81.7312V31.95H77.5872V34.19H81.5912V35.912H77.5872V38.278H81.7312V40H75.4872ZM83.6017 42.688V40.994H90.3217V42.688H83.6017Z" fill="currentColor"/>
</svg>
