<svg width="40" height="40" viewBox="0 0 40 40" fill="none" xmlns="http://www.w3.org/2000/svg">
<g clip-path="url(#clip0_4067_810)">
<rect width="40" height="40" rx="8" fill="black"/>
<path d="M30.4304 17.4545H24.0213C23.9759 16.9242 23.8546 16.4432 23.6577 16.0114C23.4683 15.5795 23.2031 15.2083 22.8622 14.8977C22.5289 14.5795 22.1236 14.3371 21.6463 14.1705C21.169 13.9962 20.6274 13.9091 20.0213 13.9091C18.9607 13.9091 18.063 14.1667 17.3281 14.6818C16.6009 15.197 16.0478 15.9356 15.669 16.8977C15.2978 17.8598 15.1122 19.0152 15.1122 20.3636C15.1122 21.7879 15.3016 22.9811 15.6804 23.9432C16.0668 24.8977 16.6236 25.6174 17.3509 26.1023C18.0781 26.5795 18.9531 26.8182 19.9759 26.8182C20.5592 26.8182 21.0819 26.7462 21.544 26.6023C22.0062 26.4508 22.4077 26.2348 22.7486 25.9545C23.0895 25.6742 23.366 25.3371 23.5781 24.9432C23.7978 24.5417 23.9455 24.0909 24.0213 23.5909L30.4304 23.6364C30.3546 24.6212 30.0781 25.625 29.6009 26.6477C29.1236 27.6629 28.4455 28.6023 27.5668 29.4659C26.6955 30.322 25.616 31.0114 24.3281 31.5341C23.0402 32.0568 21.544 32.3182 19.8395 32.3182C17.7031 32.3182 15.7865 31.8598 14.0895 30.9432C12.4001 30.0265 11.063 28.678 10.0781 26.8977C9.10085 25.1174 8.61222 22.9394 8.61222 20.3636C8.61222 17.7727 9.11222 15.5909 10.1122 13.8182C11.1122 12.0379 12.4607 10.6932 14.1577 9.78409C15.8546 8.86742 17.7486 8.40909 19.8395 8.40909C21.3092 8.40909 22.6615 8.60985 23.8963 9.01136C25.1312 9.41288 26.2145 10 27.1463 10.7727C28.0781 11.5379 28.8281 12.4811 29.3963 13.6023C29.9645 14.7235 30.3092 16.0076 30.4304 17.4545Z" fill="white"/>
</g>
<defs>
<clipPath id="clip0_4067_810">
<rect width="40" height="40" rx="8" fill="white"/>
</clipPath>
</defs>
</svg>
