<svg width="90" height="35" viewBox="0 0 90 35" fill="none" xmlns="http://www.w3.org/2000/svg">
<g clip-path="url(#clip0_4117_174)">
<path d="M88.5 1.5V33.5H1.5V1.5H88.5Z" stroke="currentColor" stroke-width="3"/>
<path d="M11.19 20.984L15.348 18.786V18.674L11.19 16.476V14.544L17.21 17.764V19.696L11.19 22.916V20.984ZM31.2131 23.168C29.9064 23.168 28.9357 22.7293 28.3011 21.852C27.6757 20.9653 27.3631 19.7193 27.3631 18.114C27.3631 16.5087 27.6757 15.2673 28.3011 14.39C28.9357 13.5033 29.9064 13.06 31.2131 13.06C31.7171 13.06 32.1604 13.13 32.5431 13.27C32.9351 13.4007 33.2711 13.5873 33.5511 13.83C33.8311 14.0727 34.0597 14.3667 34.2371 14.712C34.4237 15.0573 34.5684 15.4447 34.6711 15.874L32.7111 16.35C32.6551 16.1167 32.5897 15.902 32.5151 15.706C32.4404 15.51 32.3424 15.342 32.2211 15.202C32.1091 15.062 31.9644 14.9547 31.7871 14.88C31.6191 14.796 31.4137 14.754 31.1711 14.754C30.6017 14.754 30.1957 14.978 29.9531 15.426C29.7197 15.8647 29.6031 16.476 29.6031 17.26V18.968C29.6031 19.752 29.7197 20.368 29.9531 20.816C30.1957 21.2547 30.6017 21.474 31.1711 21.474C31.6564 21.474 32.0064 21.3247 32.2211 21.026C32.4451 20.7273 32.6084 20.3447 32.7111 19.878L34.6711 20.354C34.5684 20.7833 34.4237 21.1707 34.2371 21.516C34.0597 21.8613 33.8311 22.16 33.5511 22.412C33.2711 22.6547 32.9351 22.8413 32.5431 22.972C32.1604 23.1027 31.7171 23.168 31.2131 23.168ZM39.3836 23.168C38.8609 23.168 38.4829 23.056 38.2496 22.832C38.0256 22.5987 37.9136 22.3233 37.9136 22.006V21.516C37.9136 21.1987 38.0256 20.928 38.2496 20.704C38.4829 20.4707 38.8609 20.354 39.3836 20.354C39.9063 20.354 40.2796 20.4707 40.5036 20.704C40.7369 20.928 40.8536 21.1987 40.8536 21.516V22.006C40.8536 22.3233 40.7369 22.5987 40.5036 22.832C40.2796 23.056 39.9063 23.168 39.3836 23.168ZM39.3836 18.422C38.8609 18.422 38.4829 18.31 38.2496 18.086C38.0256 17.8527 37.9136 17.5773 37.9136 17.26V16.77C37.9136 16.4527 38.0256 16.182 38.2496 15.958C38.4829 15.7247 38.8609 15.608 39.3836 15.608C39.9063 15.608 40.2796 15.7247 40.5036 15.958C40.7369 16.182 40.8536 16.4527 40.8536 16.77V17.26C40.8536 17.5773 40.7369 17.8527 40.5036 18.086C40.2796 18.31 39.9063 18.422 39.3836 18.422ZM47.7781 23.168C46.4715 23.168 45.5055 22.7247 44.8801 21.838C44.2641 20.9513 43.9561 19.71 43.9561 18.114C43.9561 16.518 44.2641 15.2767 44.8801 14.39C45.5055 13.5033 46.4715 13.06 47.7781 13.06C49.0848 13.06 50.0461 13.5033 50.6621 14.39C51.2875 15.2767 51.6001 16.518 51.6001 18.114C51.6001 19.71 51.2875 20.9513 50.6621 21.838C50.0461 22.7247 49.0848 23.168 47.7781 23.168ZM47.7781 21.474C48.3755 21.474 48.7861 21.2547 49.0101 20.816C49.2435 20.368 49.3601 19.7473 49.3601 18.954V17.26C49.3601 16.476 49.2435 15.8647 49.0101 15.426C48.7861 14.978 48.3755 14.754 47.7781 14.754C47.1808 14.754 46.7655 14.978 46.5321 15.426C46.3081 15.8647 46.1961 16.476 46.1961 17.26V18.968C46.1961 19.752 46.3081 20.368 46.5321 20.816C46.7655 21.2547 47.1808 21.474 47.7781 21.474ZM52.8687 13.228H56.0187C57.3347 13.228 58.31 13.648 58.9447 14.488C59.5793 15.328 59.8967 16.5367 59.8967 18.114C59.8967 19.6913 59.5793 20.9 58.9447 21.74C58.31 22.58 57.3347 23 56.0187 23H52.8687V13.228ZM55.8787 21.348C56.504 21.348 56.9613 21.1473 57.2507 20.746C57.54 20.3447 57.6847 19.7613 57.6847 18.996V17.218C57.6847 16.462 57.54 15.8833 57.2507 15.482C56.9613 15.0807 56.504 14.88 55.8787 14.88H54.9407V21.348H55.8787ZM61.4872 23V13.228H67.7312V14.95H63.5872V17.19H67.5912V18.912H63.5872V21.278H67.7312V23H61.4872ZM69.6017 25.688V23.994H76.3217V25.688H69.6017Z" fill="currentColor"/>
</g>
<defs>
<clipPath id="clip0_4117_174">
<rect width="90" height="35" fill="white"/>
</clipPath>
</defs>
</svg>
