<svg width="36" height="36" viewBox="0 0 36 36" fill="none" xmlns="http://www.w3.org/2000/svg">
<g clip-path="url(#clip0_4067_810)">
<path d="M25.6978 16.0909H20.891C20.8569 15.6932 20.766 15.3324 20.6183 15.0085C20.4762 14.6847 20.2773 14.4062 20.0217 14.1733C19.7717 13.9347 19.4677 13.7528 19.1097 13.6278C18.7518 13.4972 18.3455 13.4318 17.891 13.4318C17.0955 13.4318 16.4222 13.625 15.8711 14.0114C15.3256 14.3977 14.9109 14.9517 14.6268 15.6733C14.3484 16.3949 14.2092 17.2614 14.2092 18.2727C14.2092 19.3409 14.3512 20.2358 14.6353 20.9574C14.9251 21.6733 15.3427 22.2131 15.8881 22.5767C16.4336 22.9347 17.0898 23.1136 17.8569 23.1136C18.2944 23.1136 18.6864 23.0597 19.033 22.9517C19.3796 22.8381 19.6808 22.6761 19.9364 22.4659C20.1921 22.2557 20.3995 22.0028 20.5586 21.7074C20.7234 21.4062 20.8342 21.0682 20.891 20.6932L25.6978 20.7273C25.641 21.4659 25.4336 22.2187 25.0756 22.9858C24.7177 23.7472 24.2092 24.4517 23.5501 25.0994C22.8967 25.7415 22.087 26.2585 21.1211 26.6506C20.1552 27.0426 19.033 27.2386 17.7546 27.2386C16.1523 27.2386 14.7148 26.8949 13.4421 26.2074C12.1751 25.5199 11.1722 24.5085 10.4336 23.1733C9.70064 21.8381 9.33416 20.2045 9.33416 18.2727C9.33416 16.3295 9.70916 14.6932 10.4592 13.3636C11.2092 12.0284 12.2205 11.0199 13.4933 10.3381C14.766 9.65057 16.1864 9.30682 17.7546 9.30682C18.8569 9.30682 19.8711 9.45739 20.7972 9.75852C21.7234 10.0597 22.5359 10.5 23.2347 11.0795C23.9336 11.6534 24.4961 12.3608 24.9222 13.2017C25.3484 14.0426 25.6069 15.0057 25.6978 16.0909Z" fill="white"/>
<path d="M25.6978 16.0909V17.0909H26.7851L26.6943 16.0074L25.6978 16.0909ZM20.891 16.0909L19.8946 16.1763L19.973 17.0909H20.891V16.0909ZM20.6183 15.0085L19.7025 15.4102L19.7054 15.4169L19.7084 15.4235L20.6183 15.0085ZM20.0217 14.1733L19.3312 14.8967L19.3396 14.9047L19.3482 14.9125L20.0217 14.1733ZM19.1097 13.6278L18.7668 14.5673L18.78 14.5719L19.1097 13.6278ZM15.8711 14.0114L15.2971 13.1925L15.2931 13.1953L15.8711 14.0114ZM14.6268 15.6733L13.6963 15.307L13.6938 15.3133L14.6268 15.6733ZM14.6353 20.9574L13.7048 21.3237L13.7084 21.3326L14.6353 20.9574ZM15.8881 22.5767L15.3334 23.4088L15.3395 23.4128L15.8881 22.5767ZM19.033 22.9517L19.3304 23.9065L19.3375 23.9043L19.3446 23.9019L19.033 22.9517ZM19.9364 22.4659L20.5715 23.2383L20.5715 23.2383L19.9364 22.4659ZM20.5586 21.7074L19.6813 21.2274L19.6781 21.2333L20.5586 21.7074ZM20.891 20.6932L20.8981 19.6932L20.032 19.6871L19.9023 20.5434L20.891 20.6932ZM25.6978 20.7273L26.6949 20.804L26.7771 19.7349L25.7049 19.7273L25.6978 20.7273ZM25.0756 22.9858L25.9806 23.4113L25.9818 23.4087L25.0756 22.9858ZM23.5501 25.0994L24.2509 25.8127L24.251 25.8127L23.5501 25.0994ZM13.4421 26.2074L12.9652 27.0863L12.9668 27.0872L13.4421 26.2074ZM10.4336 23.1733L9.55698 23.6545L9.55856 23.6574L10.4336 23.1733ZM10.4592 13.3636L11.3301 13.855L11.331 13.8534L10.4592 13.3636ZM13.4933 10.3381L13.9655 11.2196L13.9685 11.2179L13.4933 10.3381ZM20.7972 9.75852L21.1064 8.80753L21.1064 8.80753L20.7972 9.75852ZM23.2347 11.0795L22.5964 11.8493L22.6001 11.8524L23.2347 11.0795ZM24.9222 13.2017L24.0302 13.6537L24.0302 13.6537L24.9222 13.2017ZM25.6978 16.0909V15.0909H20.891V16.0909V17.0909H25.6978V16.0909ZM20.891 16.0909L21.8873 16.0055C21.8446 15.5075 21.7287 15.0333 21.5281 14.5935L20.6183 15.0085L19.7084 15.4235C19.8033 15.6314 19.8691 15.8789 19.8946 16.1763L20.891 16.0909ZM20.6183 15.0085L21.534 14.6069C21.337 14.1577 21.0567 13.7635 20.6952 13.4341L20.0217 14.1733L19.3482 14.9125C19.498 15.049 19.6154 15.2116 19.7025 15.4102L20.6183 15.0085ZM20.0217 14.1733L20.7121 13.4499C20.3493 13.1036 19.9188 12.8512 19.4394 12.6837L19.1097 13.6278L18.78 14.5719C19.0166 14.6545 19.194 14.7657 19.3312 14.8967L20.0217 14.1733ZM19.1097 13.6278L19.4527 12.6885C18.9659 12.5108 18.4405 12.4318 17.891 12.4318V13.4318V14.4318C18.2505 14.4318 18.5376 14.4835 18.7668 14.5672L19.1097 13.6278ZM17.891 13.4318V12.4318C16.9284 12.4318 16.0452 12.668 15.2971 13.1925L15.8711 14.0114L16.4451 14.8302C16.7992 14.582 17.2626 14.4318 17.891 14.4318V13.4318ZM15.8711 14.0114L15.2931 13.1953C14.5647 13.7112 14.04 14.4341 13.6963 15.307L14.6268 15.6733L15.5573 16.0396C15.7818 15.4694 16.0865 15.0842 16.4491 14.8274L15.8711 14.0114ZM14.6268 15.6733L13.6938 15.3133C13.3598 16.1791 13.2092 17.1742 13.2092 18.2727H14.2092H15.2092C15.2092 17.3486 15.3369 16.6107 15.5597 16.0333L14.6268 15.6733ZM14.2092 18.2727H13.2092C13.2092 19.4222 13.361 20.4504 13.7048 21.3237L14.6353 20.9574L15.5658 20.5911C15.3414 20.0211 15.2092 19.2596 15.2092 18.2727H14.2092ZM14.6353 20.9574L13.7084 21.3326C14.0598 22.2008 14.5928 22.915 15.3334 23.4088L15.8881 22.5767L16.4428 21.7447C16.0926 21.5112 15.7904 21.1458 15.5622 20.5822L14.6353 20.9574ZM15.8881 22.5767L15.3395 23.4128C16.0749 23.8953 16.9298 24.1136 17.8569 24.1136V23.1136V22.1136C17.2499 22.1136 16.7923 21.974 16.4368 21.7407L15.8881 22.5767ZM17.8569 23.1136V24.1136C18.3753 24.1136 18.8702 24.0498 19.3304 23.9065L19.033 22.9517L18.7356 21.9969C18.5027 22.0695 18.2135 22.1136 17.8569 22.1136V23.1136ZM19.033 22.9517L19.3446 23.9019C19.7971 23.7536 20.2107 23.5351 20.5715 23.2383L19.9364 22.4659L19.3013 21.6935C19.1508 21.8172 18.9621 21.9226 18.7215 22.0015L19.033 22.9517ZM19.9364 22.4659L20.5715 23.2383C20.929 22.9444 21.2192 22.5898 21.4391 22.1815L20.5586 21.7074L19.6781 21.2333C19.5798 21.4159 19.4552 21.567 19.3013 21.6935L19.9364 22.4659ZM20.5586 21.7074L21.4359 22.1874C21.6624 21.7734 21.8072 21.3216 21.8797 20.843L20.891 20.6932L19.9023 20.5434C19.8612 20.8147 19.7843 21.0391 19.6813 21.2274L20.5586 21.7074ZM20.891 20.6932L20.8839 21.6932L25.6907 21.7272L25.6978 20.7273L25.7049 19.7273L20.8981 19.6932L20.891 20.6932ZM25.6978 20.7273L24.7007 20.6506C24.6544 21.2535 24.4837 21.8895 24.1695 22.5629L25.0756 22.9858L25.9818 23.4087C26.3835 22.548 26.6276 21.6783 26.6949 20.804L25.6978 20.7273ZM25.0756 22.9858L24.1707 22.5603C23.8679 23.2044 23.432 23.8134 22.8491 24.3862L23.5501 25.0994L24.251 25.8127C24.9863 25.09 25.5675 24.2899 25.9806 23.4113L25.0756 22.9858ZM23.5501 25.0994L22.8492 24.3861C22.3011 24.9248 21.6064 25.3744 20.745 25.724L21.1211 26.6506L21.4972 27.5772C22.5676 27.1427 23.4923 26.5582 24.2509 25.8127L23.5501 25.0994ZM21.1211 26.6506L20.745 25.724C19.9223 26.0579 18.9324 26.2386 17.7546 26.2386V27.2386V28.2386C19.1336 28.2386 20.3881 28.0273 21.4972 27.5772L21.1211 26.6506ZM17.7546 27.2386V26.2386C16.3001 26.2386 15.0289 25.928 13.9174 25.3275L13.4421 26.2074L12.9668 27.0872C14.4008 27.8618 16.0046 28.2386 17.7546 28.2386V27.2386ZM13.4421 26.2074L13.919 25.3284C12.8296 24.7373 11.9606 23.8678 11.3086 22.6892L10.4336 23.1733L9.55856 23.6574C10.3839 25.1493 11.5205 26.3024 12.9652 27.0863L13.4421 26.2074ZM10.4336 23.1733L11.3102 22.6921C10.6771 21.5388 10.3342 20.0805 10.3342 18.2727H9.33416H8.33416C8.33416 20.3286 8.72419 22.1374 9.55698 23.6545L10.4336 23.1733ZM9.33416 18.2727H10.3342C10.3342 16.4556 10.6848 14.999 11.3301 13.855L10.4592 13.3636L9.58818 12.8723C8.73354 14.3874 8.33416 16.2035 8.33416 18.2727H9.33416ZM10.4592 13.3636L11.331 13.8534C11.9937 12.6736 12.8709 11.8059 13.9655 11.2195L13.4933 10.3381L13.021 9.45659C11.5702 10.2338 10.4246 11.3833 9.58729 12.8739L10.4592 13.3636ZM13.4933 10.3381L13.9685 11.2179C15.0832 10.6158 16.3381 10.3068 17.7546 10.3068V9.30682V8.30682C16.0348 8.30682 14.4488 8.68533 13.018 9.45823L13.4933 10.3381ZM17.7546 9.30682V10.3068C18.7655 10.3068 19.6739 10.4448 20.488 10.7095L20.7972 9.75852L21.1064 8.80753C20.0683 8.46996 18.9483 8.30682 17.7546 8.30682V9.30682ZM20.7972 9.75852L20.488 10.7095C21.3028 10.9744 22.0017 11.3561 22.5964 11.8493L23.2347 11.0795L23.8731 10.3098C23.0701 9.64387 22.1439 9.14488 21.1064 8.80753L20.7972 9.75852ZM23.2347 11.0795L22.6001 11.8524C23.1873 12.3346 23.664 12.9311 24.0302 13.6537L24.9222 13.2017L25.8142 12.7497C25.3282 11.7905 24.6799 10.9723 23.8693 10.3067L23.2347 11.0795ZM24.9222 13.2017L24.0302 13.6537C24.3898 14.3633 24.6195 15.1979 24.7013 16.1744L25.6978 16.0909L26.6943 16.0074C26.5943 14.8135 26.3069 13.722 25.8142 12.7497L24.9222 13.2017Z" fill="black"/>
</g>
<rect x="1" y="1" width="34" height="34" rx="7" stroke="black" stroke-width="2"/>
<defs>
<clipPath id="clip0_4067_810">
<rect width="36" height="36" rx="8" fill="white"/>
</clipPath>
</defs>
</svg>
