<svg width="40" height="40" viewBox="0 0 40 40" fill="none" xmlns="http://www.w3.org/2000/svg">
<g clip-path="url(#clip0_4068_168)">
<mask id="mask0_4068_168" style="mask-type:luminance" maskUnits="userSpaceOnUse" x="0" y="0" width="40" height="40">
<path d="M32 0H8C3.58172 0 0 3.58172 0 8V32C0 36.4183 3.58172 40 8 40H32C36.4183 40 40 36.4183 40 32V8C40 3.58172 36.4183 0 32 0Z" fill="white"/>
</mask>
<g mask="url(#mask0_4068_168)">
<path d="M32 0H8C3.58172 0 0 3.58172 0 8V32C0 36.4183 3.58172 40 8 40H32C36.4183 40 40 36.4183 40 32V8C40 3.58172 36.4183 0 32 0Z" fill="black"/>
<path d="M32 0H8C3.58172 0 0 3.58172 0 8V32C0 36.4183 3.58172 40 8 40H32C36.4183 40 40 36.4183 40 32V8C40 3.58172 36.4183 0 32 0Z" fill="white"/>
</g>
<path d="M30.8182 17.0454H24.4091C24.3637 16.5151 24.2424 16.0341 24.0455 15.6023C23.8561 15.1704 23.5909 14.7992 23.25 14.4886C22.9167 14.1704 22.5114 13.928 22.0341 13.7614C21.5568 13.5871 21.0152 13.5 20.4091 13.5C19.3485 13.5 18.4508 13.7576 17.7159 14.2727C16.9887 14.7879 16.4356 15.5265 16.0568 16.4886C15.6856 17.4507 15.5 18.6061 15.5 19.9545C15.5 21.3788 15.6894 22.572 16.0682 23.5341C16.4546 24.4886 17.0114 25.2083 17.7387 25.6932C18.4659 26.1704 19.3409 26.4091 20.3637 26.4091C20.947 26.4091 21.4697 26.3371 21.9318 26.1932C22.394 26.0417 22.7955 25.8257 23.1364 25.5454C23.4773 25.2651 23.7538 24.928 23.9659 24.5341C24.1856 24.1326 24.3333 23.6818 24.4091 23.1818L30.8182 23.2273C30.7424 24.2121 30.4659 25.2159 29.9887 26.2386C29.5114 27.2538 28.8333 28.1932 27.9546 29.0568C27.0833 29.9129 26.0038 30.6023 24.7159 31.125C23.428 31.6477 21.9318 31.9091 20.2273 31.9091C18.0909 31.9091 16.1743 31.4507 14.4773 30.5341C12.7879 29.6174 11.4508 28.2689 10.4659 26.4886C9.48863 24.7083 9 22.5303 9 19.9545C9 17.3636 9.5 15.1818 10.5 13.4091C11.5 11.6288 12.8485 10.2841 14.5455 9.375C16.2424 8.45833 18.1364 8 20.2273 8C21.697 8 23.0493 8.20076 24.2841 8.60227C25.519 9.00379 26.6023 9.59091 27.5341 10.3636C28.4659 11.1288 29.2159 12.072 29.7841 13.1932C30.3523 14.3144 30.697 15.5985 30.8182 17.0454Z" fill="black"/>
</g>
<defs>
<clipPath id="clip0_4068_168">
<rect width="40" height="40" fill="white"/>
</clipPath>
</defs>
</svg>
